<?xml version="1.0" encoding="UTF-8"?>
<svg viewBox="0 0 1040 560" xmlns="http://www.w3.org/2000/svg">
      <defs><style data-illustrate-export-fonts="true">@import url('https://fonts.googleapis.com/css2?family=Instrument+Serif:ital@0;1&amp;family=Geist:wght@400;500;600&amp;family=Geist+Mono:wght@400;500;600&amp;display=swap');</style>
        <marker id="arrow" markerWidth="8" markerHeight="6" refX="7" refY="3" orient="auto"><polygon points="0 0, 8 3, 0 6" fill="#4f6078"/></marker>
        <marker id="arrow-accent" markerWidth="8" markerHeight="6" refX="7" refY="3" orient="auto"><polygon points="0 0, 8 3, 0 6" fill="#2563eb"/></marker>
        <marker id="arrow-link" markerWidth="8" markerHeight="6" refX="7" refY="3" orient="auto"><polygon points="0 0, 8 3, 0 6" fill="#1d4ed8"/></marker>
      </defs>

      <rect width="100%" height="100%" fill="#f6f8fc"/>

      <!-- ============ ZONES (drawn first) ============ -->
      <rect x="32" y="72" width="232" height="400" rx="8" fill="rgba(21,35,60,0.02)" stroke="rgba(21,35,60,0.10)" stroke-width="0.8"/>
      <rect x="72" y="76" width="152" height="12" rx="2" fill="#f6f8fc"/>
      <text x="148" y="85" fill="rgba(21,35,60,0.45)" font-size="7" font-family="'IBM Plex Mono', 'Noto Sans Arabic', monospace" text-anchor="middle" letter-spacing="0.14em">SOURCE OF TRUTH · THIS REPO</text>

      <rect x="404" y="32" width="232" height="376" rx="8" fill="rgba(21,35,60,0.02)" stroke="rgba(21,35,60,0.10)" stroke-width="0.8"/>
      <rect x="464" y="36" width="112" height="12" rx="2" fill="#f6f8fc"/>
      <text x="520" y="45" fill="rgba(21,35,60,0.45)" font-size="7" font-family="'IBM Plex Mono', 'Noto Sans Arabic', monospace" text-anchor="middle" letter-spacing="0.14em">DISTRIBUTION CHANNEL</text>

      <rect x="776" y="80" width="232" height="328" rx="8" fill="rgba(21,35,60,0.02)" stroke="rgba(21,35,60,0.10)" stroke-width="0.8"/>
      <rect x="840" y="84" width="104" height="12" rx="2" fill="#f6f8fc"/>
      <text x="892" y="93" fill="rgba(21,35,60,0.45)" font-size="7" font-family="'IBM Plex Mono', 'Noto Sans Arabic', monospace" text-anchor="middle" letter-spacing="0.14em">YOUR WORKING COPY</text>

      <!-- ============ ARROWS (before boxes) ============ -->
      <!-- skills/ -> plugin marketplace -->
      <path d="M 248,128 H 328 Q 336,128 336,120 V 112 Q 336,104 344,104 H 420" fill="none" stroke="#4f6078" stroke-width="1.2" marker-end="url(#arrow)"/>
      <!-- skills/ -> skills.sh registry -->
      <path d="M 248,160 H 328 Q 336,160 336,168 V 208 Q 336,216 344,216 H 420" fill="none" stroke="#4f6078" stroke-width="1.2" marker-end="url(#arrow)"/>
      <!-- extensions/ -> catalog -->
      <path d="M 248,288 H 328 Q 336,288 336,296 V 328 Q 336,336 344,336 H 420" fill="none" stroke="#2563eb" stroke-width="1.2" marker-end="url(#arrow-accent)"/>
      <!-- presets/ -> catalog (bundled at build) -->
      <path d="M 248,416 H 328 Q 336,416 336,408 V 376 Q 336,368 344,368 H 420" fill="none" stroke="#4f6078" stroke-width="1" stroke-dasharray="4,3" marker-end="url(#arrow)"/>
      <rect x="264" y="384" width="64" height="12" rx="2" fill="#f6f8fc"/>
      <text x="296" y="393" fill="#6b7a90" font-size="8" font-family="'IBM Plex Mono', 'Noto Sans Arabic', monospace" text-anchor="middle" letter-spacing="0.06em">BUNDLED</text>

      <!-- marketplace -> agent session -->
      <path d="M 620,104 H 700 Q 708,104 708,112 V 128 Q 708,136 716,136 H 792" fill="none" stroke="#4f6078" stroke-width="1.2" marker-end="url(#arrow)"/>
      <!-- skills.sh -> agent session -->
      <path d="M 620,216 H 700 Q 708,216 708,208 V 176 Q 708,168 716,168 H 792" fill="none" stroke="#4f6078" stroke-width="1.2" marker-end="url(#arrow)"/>
      <!-- catalog -> spec kit project -->
      <line x1="620" y1="352" x2="792" y2="352" stroke="#2563eb" stroke-width="1.2" marker-end="url(#arrow-accent)"/>
      <!-- spec kit project -> agent session -->
      <line x1="892" y1="312" x2="892" y2="196" stroke="#4f6078" stroke-width="1" stroke-dasharray="4,3" marker-end="url(#arrow)"/>
      <rect x="900" y="246" width="72" height="12" rx="2" fill="#f6f8fc"/>
      <text x="936" y="255" fill="#6b7a90" font-size="8" font-family="'IBM Plex Mono', 'Noto Sans Arabic', monospace" text-anchor="middle" letter-spacing="0.06em">REGISTERS</text>

      <!-- ============ NODES ============ -->
      <!-- A1 skills/ -->
      <rect x="48" y="104" width="200" height="80" rx="6" fill="#f6f8fc"/>
      <rect x="48" y="104" width="200" height="80" rx="6" fill="#ffffff" stroke="#15233c" stroke-width="1"/>
      <rect x="56" y="112" width="36" height="12" rx="2" fill="transparent" stroke="rgba(21,35,60,0.40)" stroke-width="0.8"/>
      <text x="74" y="121" fill="rgba(21,35,60,0.80)" font-size="7" font-family="'IBM Plex Mono', 'Noto Sans Arabic', monospace" text-anchor="middle" letter-spacing="0.08em">TREE</text>
      <text x="148" y="148" fill="#15233c" font-size="12" font-weight="600" font-family="'IBM Plex Sans', 'Noto Sans Arabic', sans-serif" text-anchor="middle">Portable skills</text>
      <text x="148" y="164" fill="#4f6078" font-size="9" font-family="'IBM Plex Mono', 'Noto Sans Arabic', monospace" text-anchor="middle">skills/&lt;bundle&gt;/skills/&lt;skill&gt;</text>

      <!-- A2 extensions/ -->
      <rect x="48" y="248" width="200" height="80" rx="6" fill="#f6f8fc"/>
      <rect x="48" y="248" width="200" height="80" rx="6" fill="#ffffff" stroke="#15233c" stroke-width="1"/>
      <rect x="56" y="256" width="36" height="12" rx="2" fill="transparent" stroke="rgba(21,35,60,0.40)" stroke-width="0.8"/>
      <text x="74" y="265" fill="rgba(21,35,60,0.80)" font-size="7" font-family="'IBM Plex Mono', 'Noto Sans Arabic', monospace" text-anchor="middle" letter-spacing="0.08em">TREE</text>
      <text x="148" y="292" fill="#15233c" font-size="12" font-weight="600" font-family="'IBM Plex Sans', 'Noto Sans Arabic', sans-serif" text-anchor="middle">Spec Kit extensions</text>
      <text x="148" y="308" fill="#4f6078" font-size="9" font-family="'IBM Plex Mono', 'Noto Sans Arabic', monospace" text-anchor="middle">extensions/&lt;id&gt;/extension.yml</text>

      <!-- A3 presets/ -->
      <rect x="48" y="376" width="200" height="80" rx="6" fill="#f6f8fc"/>
      <rect x="48" y="376" width="200" height="80" rx="6" fill="#ffffff" stroke="#15233c" stroke-width="1"/>
      <rect x="56" y="384" width="36" height="12" rx="2" fill="transparent" stroke="rgba(21,35,60,0.40)" stroke-width="0.8"/>
      <text x="74" y="393" fill="rgba(21,35,60,0.80)" font-size="7" font-family="'IBM Plex Mono', 'Noto Sans Arabic', monospace" text-anchor="middle" letter-spacing="0.08em">TREE</text>
      <text x="148" y="420" fill="#15233c" font-size="12" font-weight="600" font-family="'IBM Plex Sans', 'Noto Sans Arabic', sans-serif" text-anchor="middle">Canonical presets</text>
      <text x="148" y="436" fill="#4f6078" font-size="9" font-family="'IBM Plex Mono', 'Noto Sans Arabic', monospace" text-anchor="middle">presets/ · command overlays</text>

      <!-- B1 marketplace -->
      <rect x="420" y="64" width="200" height="80" rx="6" fill="#f6f8fc"/>
      <rect x="420" y="64" width="200" height="80" rx="6" fill="rgba(21,35,60,0.05)" stroke="#4f6078" stroke-width="1"/>
      <rect x="428" y="72" width="36" height="12" rx="2" fill="transparent" stroke="rgba(79,96,120,0.40)" stroke-width="0.8"/>
      <text x="446" y="81" fill="rgba(79,96,120,0.90)" font-size="7" font-family="'IBM Plex Mono', 'Noto Sans Arabic', monospace" text-anchor="middle" letter-spacing="0.08em">JSON</text>
      <text x="520" y="108" fill="#15233c" font-size="12" font-weight="600" font-family="'IBM Plex Sans', 'Noto Sans Arabic', sans-serif" text-anchor="middle">Plugin marketplace</text>
      <text x="520" y="124" fill="#4f6078" font-size="9" font-family="'IBM Plex Mono', 'Noto Sans Arabic', monospace" text-anchor="middle">.claude-plugin/marketplace.json</text>

      <!-- B2 skills.sh -->
      <rect x="420" y="176" width="200" height="80" rx="6" fill="#f6f8fc"/>
      <rect x="420" y="176" width="200" height="80" rx="6" fill="rgba(21,35,60,0.05)" stroke="#4f6078" stroke-width="1"/>
      <rect x="428" y="184" width="36" height="12" rx="2" fill="transparent" stroke="rgba(79,96,120,0.40)" stroke-width="0.8"/>
      <text x="446" y="193" fill="rgba(79,96,120,0.90)" font-size="7" font-family="'IBM Plex Mono', 'Noto Sans Arabic', monospace" text-anchor="middle" letter-spacing="0.08em">CLI</text>
      <text x="520" y="220" fill="#15233c" font-size="12" font-weight="600" font-family="'IBM Plex Sans', 'Noto Sans Arabic', sans-serif" text-anchor="middle">skills.sh registry</text>
      <text x="520" y="236" fill="#4f6078" font-size="9" font-family="'IBM Plex Mono', 'Noto Sans Arabic', monospace" text-anchor="middle">npx skills add</text>

      <!-- B3 catalog (FOCAL) -->
      <rect x="420" y="312" width="200" height="80" rx="6" fill="#f6f8fc"/>
      <rect x="420" y="312" width="200" height="80" rx="6" fill="rgba(37,99,235,0.09)" stroke="#2563eb" stroke-width="1"/>
      <rect x="428" y="320" width="52" height="12" rx="2" fill="transparent" stroke="rgba(37,99,235,0.45)" stroke-width="0.8"/>
      <text x="454" y="329" fill="#2563eb" font-size="7" font-family="'IBM Plex Mono', 'Noto Sans Arabic', monospace" text-anchor="middle" letter-spacing="0.08em">VERIFIED</text>
      <text x="520" y="356" fill="#15233c" font-size="12" font-weight="600" font-family="'IBM Plex Sans', 'Noto Sans Arabic', sans-serif" text-anchor="middle">Extension catalog</text>
      <text x="520" y="372" fill="#4f6078" font-size="9" font-family="'IBM Plex Mono', 'Noto Sans Arabic', monospace" text-anchor="middle">catalog.json + release ZIPs</text>

      <!-- C1 agent session (FOCAL) -->
      <rect x="792" y="112" width="200" height="80" rx="6" fill="#f6f8fc"/>
      <rect x="792" y="112" width="200" height="80" rx="6" fill="rgba(37,99,235,0.09)" stroke="#2563eb" stroke-width="1"/>
      <rect x="800" y="120" width="40" height="12" rx="2" fill="transparent" stroke="rgba(37,99,235,0.45)" stroke-width="0.8"/>
      <text x="820" y="129" fill="#2563eb" font-size="7" font-family="'IBM Plex Mono', 'Noto Sans Arabic', monospace" text-anchor="middle" letter-spacing="0.08em">AGENT</text>
      <text x="892" y="156" fill="#15233c" font-size="12" font-weight="600" font-family="'IBM Plex Sans', 'Noto Sans Arabic', sans-serif" text-anchor="middle">Agent session</text>
      <text x="892" y="172" fill="#4f6078" font-size="9" font-family="'IBM Plex Mono', 'Noto Sans Arabic', monospace" text-anchor="middle">Claude Code · Codex</text>

      <!-- C2 spec kit project -->
      <rect x="792" y="312" width="200" height="80" rx="6" fill="#f6f8fc"/>
      <rect x="792" y="312" width="200" height="80" rx="6" fill="#ffffff" stroke="#15233c" stroke-width="1"/>
      <rect x="800" y="320" width="36" height="12" rx="2" fill="transparent" stroke="rgba(21,35,60,0.40)" stroke-width="0.8"/>
      <text x="818" y="329" fill="rgba(21,35,60,0.80)" font-size="7" font-family="'IBM Plex Mono', 'Noto Sans Arabic', monospace" text-anchor="middle" letter-spacing="0.08em">REPO</text>
      <text x="892" y="356" fill="#15233c" font-size="12" font-weight="600" font-family="'IBM Plex Sans', 'Noto Sans Arabic', sans-serif" text-anchor="middle">Spec Kit project</text>
      <text x="892" y="372" fill="#4f6078" font-size="9" font-family="'IBM Plex Mono', 'Noto Sans Arabic', monospace" text-anchor="middle">.specify/extensions/</text>

      <!-- ============ LEGEND ============ -->
      <line x1="32" y1="504" x2="1008" y2="504" stroke="rgba(21,35,60,0.10)" stroke-width="0.8"/>
      <text x="32" y="524" fill="#4f6078" font-size="8" font-family="'IBM Plex Mono', 'Noto Sans Arabic', monospace" letter-spacing="0.14em">LEGEND</text>

      <rect x="112" y="514" width="14" height="12" rx="2" fill="#ffffff" stroke="#15233c" stroke-width="1"/>
      <text x="134" y="524" fill="#4f6078" font-size="8" font-family="'IBM Plex Mono', 'Noto Sans Arabic', monospace" letter-spacing="0.06em">REPOSITORY TREE</text>

      <rect x="292" y="514" width="14" height="12" rx="2" fill="rgba(21,35,60,0.05)" stroke="#4f6078" stroke-width="1"/>
      <text x="314" y="524" fill="#4f6078" font-size="8" font-family="'IBM Plex Mono', 'Noto Sans Arabic', monospace" letter-spacing="0.06em">INSTALL CHANNEL</text>

      <rect x="472" y="514" width="14" height="12" rx="2" fill="rgba(37,99,235,0.09)" stroke="#2563eb" stroke-width="1"/>
      <text x="494" y="524" fill="#4f6078" font-size="8" font-family="'IBM Plex Mono', 'Noto Sans Arabic', monospace" letter-spacing="0.06em">GOVERNED PATH</text>

      <line x1="652" y1="520" x2="678" y2="520" stroke="#4f6078" stroke-width="1" stroke-dasharray="4,3"/>
      <text x="686" y="524" fill="#4f6078" font-size="8" font-family="'IBM Plex Mono', 'Noto Sans Arabic', monospace" letter-spacing="0.06em">BUILT IN, NOT INSTALLED SEPARATELY</text>
    </svg>
